<svg xmlns="http://www.w3.org/2000/svg" viewBox="0 0 64 64"><defs><linearGradient id="a" x1="0" y1="0" x2="0" y2="1"><stop offset="0%" stop-color="#5fb1ec"/><stop offset="100%" stop-color="#2980b9"/></linearGradient><linearGradient id="c" x1="0" y1="0" x2="1" y2="1"><stop offset="0%" stop-opacity=".25"/><stop offset="100%" stop-opacity="0"/></linearGradient><clipPath id="b"><rect x="4" y="4" width="56" height="56" rx="14"/></clipPath></defs><rect x="4" y="6" width="56" height="56" rx="14" opacity=".25"/><rect x="4" y="4" width="56" height="56" rx="14" fill="url(#a)"/><rect x="4" y="4" width="56" height="56" rx="14" fill="none" stroke="#fff" opacity=".2"/><g clip-path="url(#b)"><path fill="url(#c)" d="m12 45 15 15h33V27l-8-8v26z"/><path fill="#eff0f1" d="M12 19h40v26H12z"/><path fill="#dae0e5" d="m12 45 20-13 20 13z"/><path opacity=".1" d="m12 19 20 14 20-14z"/><path fill="#fcfcfc" d="m12 19 20 12 20-12z"/><path fill="none" stroke="#000" opacity=".1" d="M12 19h40v26H12z"/><g opacity=".25"><path d="M10 30h36l12 2-12 3-36-1z" transform="rotate(-45 35.526 31.34)"/><path d="M25 29.5h6v5h-6z" transform="rotate(-45 35.526 31.34)"/><path stroke="#000" stroke-width="2" stroke-linecap="round" d="M-4 27H6M0 32h8M-2 37h8" transform="rotate(-45 35.526 31.34)"/></g><path stroke="#fdbc4b" stroke-width="2" stroke-linecap="round" d="M-4 27H6" transform="rotate(-45 32 32)"/><path stroke="#fcfcfc" stroke-width="2" stroke-linecap="round" d="M0 32h8" transform="rotate(-45 32 32)"/><path stroke="#f67400" stroke-width="2" stroke-linecap="round" d="M-2 37h8" transform="rotate(-45 32 32)"/><path fill="#31363b" d="M10 32v2h36v-2z" transform="rotate(-45 32 32)"/><path fill="#4d545b" d="M10 30v2h36v-2z" transform="rotate(-45 32 32)"/><path fill="#f67400" d="M46 32h12l-12 3z" transform="rotate(-45 32 32)"/><path fill="#fdbc4b" d="m46 29 12 3H46z" transform="rotate(-45 32 32)"/><path fill="#d35400" d="M25 32h6v2.5h-6z" transform="rotate(-45 32 32)"/><path fill="#f67400" d="M25 29.5h6V32h-6z" transform="rotate(-45 32 32)"/></g></svg>
